<?xml version="1.0" standalone="no"?><!DOCTYPE svg PUBLIC "-//W3C//DTD SVG 1.1//EN" "http://www.w3.org/Graphics/SVG/1.1/DTD/svg11.dtd"><svg t="1508422370191" class="icon" style="" viewBox="0 0 1024 1024" version="1.1" xmlns="http://www.w3.org/2000/svg" p-id="2374" xmlns:xlink="http://www.w3.org/1999/xlink" width="32" height="32"><defs><style type="text/css"></style></defs><path d="M225.28 675.75808c-11.32544 0-20.48 9.17504-20.48 20.48l0 125.60384c0 11.30496 9.15456 20.48 20.48 20.48l573.44 0c11.32544 0 20.48-9.17504 20.48-20.48l0-125.60384c0-11.30496-9.15456-20.48-20.48-20.48s-20.48 9.17504-20.48 20.48l0 105.12384L245.76 801.36192l0-105.12384C245.76 684.93312 236.60544 675.75808 225.28 675.75808z" p-id="2375" fill="#1296db"></path><path d="M512 186.96192c-11.32544 0-20.48 9.17504-20.48 20.48l0 440.5248-129.90464-125.48096c-8.0896-7.86432-21.0944-7.63904-28.93824 0.49152-7.86432 8.13056-7.63904 21.0944 0.49152 28.95872l164.31104 158.74048c0.02048 0.02048 0.02048 0.02048 0.04096 0.04096l0.24576 0.22528c0.75776 0.73728 1.72032 1.04448 2.53952 1.6384 1.26976 0.9216 2.4576 1.9456 3.93216 2.53952 2.47808 1.024 5.09952 1.55648 7.74144 1.55648s5.26336-0.55296 7.74144-1.55648c1.37216-0.55296 2.4576-1.51552 3.64544-2.3552 0.94208-0.63488 2.00704-1.024 2.84672-1.8432l164.57728-159.0272c8.11008-7.86432 8.33536-20.82816 0.47104-28.95872-7.86432-8.13056-20.82816-8.35584-28.95872-0.49152L532.48 647.96672l0-440.5248C532.48 196.13696 523.32544 186.96192 512 186.96192z" p-id="2376" fill="#1296db"></path></svg>