<?xml version="1.0" standalone="no"?><!DOCTYPE svg PUBLIC "-//W3C//DTD SVG 1.1//EN" "http://www.w3.org/Graphics/SVG/1.1/DTD/svg11.dtd"><svg t="1508422961573" class="icon" style="" viewBox="0 0 1024 1024" version="1.1" xmlns="http://www.w3.org/2000/svg" p-id="6077" xmlns:xlink="http://www.w3.org/1999/xlink" width="32" height="32"><defs><style type="text/css"></style></defs><path d="M576.5 939.2c-114.7 0-222.6-44.7-303.7-125.8l11.9-11.9c77.9 77.9 181.6 120.9 291.8 120.9 227.6 0 412.7-185.1 412.7-412.7S804 97 576.5 97 163.8 282.2 163.8 509.7c0 23.1 1.9 46.3 5.7 68.9l-16.6 2.8c-4-23.5-6-47.7-6-71.7 0-236.8 192.7-429.5 429.5-429.5S1006 272.9 1006 509.7 813.3 939.2 576.5 939.2z" fill="#1296db" p-id="6078"></path><path d="M158.2 592.4L8.7 443l11.9-11.9 137.6 137.5 137.5-137.5 11.9 11.9zM736.5 501.3L509.1 370v262.6z" fill="#1296db" p-id="6079"></path><path d="M500.7 647.2V355.4l252.7 145.9-252.7 145.9z m16.8-262.6V618l202.1-116.7-202.1-116.7z" fill="#1296db" p-id="6080"></path></svg>