<?xml version="1.0" standalone="no"?><!DOCTYPE svg PUBLIC "-//W3C//DTD SVG 1.1//EN" "http://www.w3.org/Graphics/SVG/1.1/DTD/svg11.dtd"><svg t="1508423039807" class="icon" style="" viewBox="0 0 1024 1024" version="1.1" xmlns="http://www.w3.org/2000/svg" p-id="7907" xmlns:xlink="http://www.w3.org/1999/xlink" width="32" height="32"><defs><style type="text/css"></style></defs><path d="M1013.44 238.4c-0.192-1.216-0.384-1.92-0.704-2.752-0.512-0.768-0.64-1.536-1.088-1.92-0.128-0.32-0.384-0.832-0.384-1.216-0.384-0.384-1.024-0.832-1.344-1.216-0.576-0.384-1.024-1.216-1.536-1.536-0.832-0.832-1.6-1.216-2.56-1.536-0.64-0.384-1.28-0.832-1.92-0.832-1.024-0.384-2.048-0.384-3.264-0.768-0.512 0-0.96 0-1.536 0l0 0L24.896 228.224c-5.696 0-10.816 3.136-13.312 8.256C9.152 241.984 9.92 247.872 13.44 252.672l171.648 208.192-20.032 193.536c-0.576 5.248 1.536 10.368 5.888 13.504 2.56 1.856 5.76 2.752 8.896 2.752 1.92 0 3.968-0.384 5.76-1.28l118.976-50.368 147.968 235.776c2.56 3.904 6.72 6.272 11.456 6.656 0.448 0 0.832 0 1.152 0 4.352 0 8.32-1.472 11.264-4.608l534.08-605.76c0.192 0 0.192-0.384 0.64-0.704 0.384-0.896 0.768-1.28 1.216-2.048 0.384-0.704 0.768-1.536 1.152-2.752 0.192-0.384 0.192-1.088 0.448-1.92 0.192-1.216 0.192-1.856 0.192-3.072-0.192-0.512 0-0.896 0-1.28C1013.888 238.912 1013.696 238.912 1013.44 238.4L1013.44 238.4zM56.384 257.664l829.824-1.472L205.888 439.552 56.384 257.664 56.384 257.664zM214.272 467.904l554.24-149.184L267.136 522.176C263.36 522.624 259.84 524.544 257.28 528.064L199.872 605.632 214.272 467.904 214.272 467.904zM226.368 619.904l42.496-57.536 19.712 31.552L226.368 619.904 226.368 619.904zM292.48 543.808l653.696-265.152-479.104 543.488L292.48 543.808z" p-id="7908" fill="#1296db"></path></svg>